<?xml version="1.0" encoding="UTF-8"?>
<svg id="Capa_1" data-name="Capa 1" xmlns="http://www.w3.org/2000/svg" viewBox="0 0 800 800">
  <defs>
    <style>
      .cls-1 {
        fill: #42473d;
      }
    </style>
  </defs>
  <path class="cls-1" d="M202.65,661.32c-40.99,0-76.66-8.6-107.02-25.81-30.36-17.2-53.89-40.86-70.59-70.97C8.35,534.45,0,499.65,0,460.19c0-44.02,8.73-81.59,26.18-112.71,17.46-31.12,40.23-54.9,68.31-71.35,28.08-16.44,57.8-24.67,89.18-24.67,23.27,0,45.79,4.31,67.55,12.9,21.75,8.61,40.99,21.25,57.68,37.95,16.7,16.7,30.1,36.43,40.23,59.2,10.12,22.77,15.43,48.57,15.94,77.42,0,7.86-2.86,14.39-8.57,19.63-6.3,5.77-14.86,8.45-23.41,8.45H179.04c-11.92,0-22.33-8.05-25.34-19.58h0c-4.33-16.59,8.19-32.8,25.34-32.8H457.89l17.31,52.37h-174.35s-.28-58.44-.28-58.44c-1.52-20.74-8.23-38.58-20.11-53.51-11.89-14.92-26.31-26.44-43.26-34.53-16.96-8.09-34.8-12.15-53.51-12.15-15.18,0-30.24,2.79-45.16,8.35-14.93,5.57-28.34,14.17-40.23,25.81-11.89,11.64-21.51,26.83-28.84,45.54-7.34,18.73-11,41.25-11,67.55,0,29.35,5.94,55.16,17.84,77.42,11.88,22.27,28.46,39.85,49.71,52.75s46.04,19.36,74.38,19.36c17.71,0,33.13-2.28,46.3-6.83,13.15-4.55,24.41-10.25,33.77-17.08,9.36-6.83,17.33-13.78,23.91-20.87,6.57-4.55,13.15-6.83,19.73-6.83,7.08,0,13.15,2.54,18.22,7.59,5.05,5.07,7.59,11.13,7.59,18.22,0,8.61-4.06,16.44-12.15,23.53-14.68,15.69-34.04,29.35-58.06,40.99-24.04,11.64-49.72,17.46-77.04,17.46Z"/>
  <path class="cls-1" d="M637.57,661.32c-40.99,0-76.66-8.6-107.02-25.81-30.36-17.2-53.89-40.86-70.59-70.97-16.7-30.1-25.05-64.9-25.05-104.36,0-44.02,8.73-81.59,26.18-112.71,17.46-31.12,40.23-54.9,68.31-71.35,28.08-16.44,57.8-24.67,89.18-24.67,23.27,0,45.79,4.31,67.55,12.9,21.75,8.61,40.99,21.25,57.69,37.95,16.69,16.7,30.1,36.43,40.22,59.2,10.12,22.77,15.43,48.57,15.94,77.42,0,8.1-3.03,14.8-9.11,20.11-6.07,5.31-13.16,7.97-21.25,7.97H469.83l-13.66-52.37h291.46l-12.14,10.63v-16.69c-1.52-20.74-8.24-38.58-20.11-53.51-11.9-14.92-26.32-26.44-43.27-34.53-16.95-8.09-34.79-12.15-53.51-12.15-15.18,0-30.24,2.79-45.16,8.35-14.93,5.57-28.34,14.17-40.23,25.81-11.89,11.64-21.51,26.83-28.84,45.54-7.34,18.73-11,41.25-11,67.55,0,29.35,5.94,55.16,17.84,77.42,11.88,22.27,28.46,39.85,49.71,52.75,21.26,12.9,46.04,19.36,74.39,19.36,17.7,0,33.13-2.28,46.29-6.83,13.16-4.55,24.41-10.25,33.78-17.08,9.35-6.83,17.32-13.78,23.9-20.87,6.58-4.55,13.16-6.83,19.74-6.83,7.08,0,13.15,2.54,18.21,7.59,5.06,5.07,7.59,11.13,7.59,18.22,0,8.61-4.06,16.44-12.15,23.53-14.68,15.69-34.03,29.35-58.07,40.99-24.04,11.64-49.72,17.46-77.04,17.46Z"/>
  <path class="cls-1" d="M203.06,452.6c-3.1,4.78-7.92,7.44-14.44,7.99-6.53,.55-12.87-1.17-19.01-5.16-6.15-4-10.21-9.03-12.17-15.1-1.97-6.07-1.4-11.49,1.7-16.27L339.22,146.77c3.1-4.77,7.91-7.44,14.44-7.99,6.53-.55,12.86,1.16,19.01,5.16,6.51,4.23,10.64,9.31,12.44,15.27,1.79,5.95,1.13,11.32-1.97,16.09L203.06,452.6Z"/>
  <path class="cls-1" d="M216.34,191.05c-2.35,0-4.35-2.59-6-7.76-1.66-5.17-2.49-11.43-2.49-18.75,0-7.33,.83-13.48,2.49-18.43,1.66-4.96,3.66-7.43,6-7.43h136.25c2.35,0,4.35,2.58,6,7.76,1.66,5.17,2.49,11.42,2.49,18.75,0,7.76-.83,14-2.49,18.75-1.66,4.74-3.66,7.11-6,7.11H216.34Z"/>
</svg>