<?xml version="1.0" encoding="UTF-8"?>
<svg id="Capa_2" data-name="Capa 2" xmlns="http://www.w3.org/2000/svg" viewBox="0 0 400.09 200.79">
  <defs>
    <style>
      .cls-1 {
        fill: #fff;
      }

      .cls-2 {
        fill: #42473d;
      }
    </style>
  </defs>
  <g id="Capa_1-2" data-name="Capa 1">
    <g>
      <g>
        <path class="cls-1" d="M106.27,86.25c-1.32,0-2.43-.47-3.32-1.4-.89-.93-1.34-2.06-1.34-3.38V30.77c0-1.4,.45-2.54,1.34-3.44,.89-.89,2-1.34,3.32-1.34,1.4,0,2.52,.45,3.38,1.34,.85,.89,1.28,2.04,1.28,3.44v15.27l-1.4-2.45c.47-2.41,1.3-4.76,2.51-7.05,1.2-2.29,2.74-4.35,4.6-6.18,1.86-1.82,4-3.26,6.41-4.31,2.41-1.05,5.05-1.57,7.93-1.57,1.71,0,3.28,.41,4.72,1.22,1.44,.82,2.16,1.96,2.16,3.44,0,1.63-.43,2.86-1.28,3.67-.86,.82-1.83,1.22-2.91,1.22-1.01,0-1.98-.23-2.91-.7s-2.1-.7-3.5-.7c-1.94,0-3.87,.54-5.77,1.63-1.9,1.09-3.65,2.58-5.25,4.49-1.59,1.91-2.88,4.08-3.85,6.53-.97,2.45-1.46,5.07-1.46,7.87v28.32c0,1.32-.45,2.45-1.34,3.38-.89,.93-2,1.4-3.32,1.4Z"/>
        <path class="cls-1" d="M152.55,17.25c-1.94,0-3.38-.39-4.31-1.17-.93-.78-1.4-1.98-1.4-3.61v-1.63c0-1.63,.5-2.84,1.52-3.61,1.01-.78,2.45-1.17,4.31-1.17s3.26,.39,4.2,1.17c.93,.78,1.4,1.98,1.4,3.61v1.63c0,1.63-.49,2.84-1.46,3.61-.97,.78-2.39,1.17-4.25,1.17Zm4.78,64.22c0,1.32-.45,2.45-1.34,3.38-.89,.93-2,1.4-3.32,1.4-1.4,0-2.55-.47-3.44-1.4-.89-.93-1.34-2.06-1.34-3.38V29.84c0-1.32,.45-2.45,1.34-3.38,.89-.93,2.04-1.4,3.44-1.4,1.32,0,2.43,.47,3.32,1.4,.89,.93,1.34,2.06,1.34,3.38v51.64Z"/>
        <path class="cls-1" d="M223.76,0c1.32,0,2.43,.45,3.32,1.34,.89,.89,1.34,2.04,1.34,3.44V81.48c0,1.32-.45,2.45-1.34,3.38-.89,.93-2,1.4-3.32,1.4-1.4,0-2.55-.47-3.44-1.4-.89-.93-1.34-2.06-1.34-3.38v-11.07l2.21-.7c0,1.79-.56,3.71-1.69,5.77-1.13,2.06-2.72,4-4.78,5.83-2.06,1.83-4.45,3.3-7.17,4.43-2.72,1.13-5.67,1.69-8.86,1.69-5.29,0-10.02-1.36-14.22-4.08-4.2-2.72-7.52-6.45-9.97-11.19-2.45-4.74-3.67-10.14-3.67-16.2s1.22-11.58,3.67-16.32c2.45-4.74,5.75-8.45,9.91-11.13,4.16-2.68,8.84-4.02,14.05-4.02,3.26,0,6.31,.54,9.15,1.63,2.84,1.09,5.34,2.56,7.52,4.43,2.17,1.86,3.86,3.92,5.07,6.18,1.2,2.25,1.81,4.51,1.81,6.76l-3.03-.7V4.78c0-1.32,.45-2.45,1.34-3.38,.89-.93,2.04-1.4,3.44-1.4Zm-24.01,78.79c3.88,0,7.3-.99,10.26-2.97,2.95-1.98,5.28-4.7,6.99-8.16,1.71-3.46,2.56-7.36,2.56-11.71s-.86-8.26-2.56-11.71c-1.71-3.46-4.04-6.18-6.99-8.16-2.95-1.98-6.37-2.97-10.26-2.97s-7.21,.99-10.2,2.97c-2.99,1.98-5.34,4.7-7.05,8.16-1.71,3.46-2.56,7.36-2.56,11.71s.85,8.14,2.56,11.6c1.71,3.46,4.06,6.2,7.05,8.22,2.99,2.02,6.39,3.03,10.2,3.03Z"/>
        <path class="cls-1" d="M273.53,87.42c-6.29,0-11.77-1.32-16.43-3.96-4.66-2.64-8.28-6.27-10.84-10.9-2.56-4.62-3.85-9.97-3.85-16.03,0-6.76,1.34-12.53,4.02-17.31,2.68-4.78,6.18-8.43,10.49-10.96,4.31-2.52,8.88-3.79,13.7-3.79,3.57,0,7.03,.66,10.37,1.98,3.34,1.32,6.29,3.26,8.86,5.83,2.56,2.56,4.62,5.59,6.18,9.09,1.55,3.5,2.37,7.46,2.45,11.89,0,1.24-.47,2.27-1.4,3.09-.93,.82-2.02,1.22-3.26,1.22h-46.04l-2.1-8.04h44.76l-1.87,1.63v-2.56c-.23-3.19-1.26-5.92-3.09-8.22-1.83-2.29-4.04-4.06-6.64-5.3-2.6-1.24-5.34-1.87-8.22-1.87-2.33,0-4.64,.43-6.94,1.28-2.29,.86-4.35,2.18-6.18,3.96-1.83,1.79-3.3,4.12-4.43,6.99-1.13,2.88-1.69,6.33-1.69,10.37,0,4.51,.91,8.47,2.74,11.89,1.82,3.42,4.37,6.12,7.63,8.1s7.07,2.97,11.42,2.97c2.72,0,5.09-.35,7.11-1.05,2.02-.7,3.75-1.57,5.19-2.62,1.44-1.05,2.66-2.12,3.67-3.21,1.01-.7,2.02-1.05,3.03-1.05,1.09,0,2.02,.39,2.8,1.17,.78,.78,1.17,1.71,1.17,2.8,0,1.32-.62,2.53-1.87,3.61-2.25,2.41-5.23,4.51-8.92,6.29-3.69,1.79-7.63,2.68-11.83,2.68Z"/>
      </g>
      <g>
        <path class="cls-1" d="M.88,167.92c-.62-1.01-.91-2.08-.87-3.21,.04-1.12,.68-2.12,1.92-2.97,.85-.54,1.81-.78,2.86-.7,1.05,.08,2,.58,2.86,1.52,2.17,2.56,4.66,4.6,7.46,6.12,2.8,1.52,6.22,2.27,10.26,2.27,1.79-.08,3.63-.39,5.54-.93,1.9-.54,3.5-1.5,4.78-2.86,1.28-1.36,1.92-3.17,1.92-5.42s-.66-3.91-1.98-5.19c-1.32-1.28-3.05-2.33-5.19-3.15-2.14-.82-4.41-1.53-6.82-2.16-2.56-.7-5.09-1.47-7.58-2.33-2.49-.85-4.72-1.96-6.7-3.32-1.98-1.36-3.58-3.07-4.78-5.13-1.21-2.06-1.81-4.6-1.81-7.63,0-3.5,.95-6.53,2.86-9.09,1.9-2.56,4.45-4.55,7.63-5.94,3.19-1.4,6.72-2.1,10.61-2.1,2.17,0,4.45,.25,6.82,.76,2.37,.51,4.68,1.36,6.94,2.56,2.25,1.21,4.23,2.86,5.94,4.95,.7,.78,1.09,1.75,1.17,2.91,.08,1.17-.43,2.21-1.52,3.15-.86,.62-1.81,.91-2.86,.87-1.05-.04-1.92-.41-2.62-1.11-1.71-2.02-3.79-3.56-6.24-4.6s-5.15-1.57-8.1-1.57c-1.79,0-3.58,.29-5.36,.87-1.79,.58-3.28,1.5-4.49,2.74-1.21,1.24-1.81,2.99-1.81,5.25,.08,2.1,.78,3.81,2.1,5.13,1.32,1.32,3.11,2.39,5.36,3.21,2.25,.82,4.74,1.61,7.46,2.39,2.49,.62,4.88,1.34,7.17,2.16,2.29,.82,4.37,1.88,6.24,3.21,1.87,1.32,3.34,3.01,4.43,5.07,1.09,2.06,1.63,4.64,1.63,7.75,0,3.57-1.01,6.66-3.03,9.27-2.02,2.6-4.68,4.59-7.98,5.95-3.3,1.36-6.86,2.04-10.67,2.04-4.27,0-8.51-.8-12.71-2.39-4.2-1.59-7.81-4.37-10.84-8.33Z"/>
        <path class="cls-1" d="M130.72,116.17c1.24,0,2.31,.43,3.21,1.28,.89,.86,1.34,2.02,1.34,3.5,0,.31-.02,.64-.06,.99-.04,.35-.14,.64-.29,.87l-17.95,51.64c-.39,1.01-1.03,1.81-1.92,2.39-.89,.58-1.85,.8-2.86,.64-1.79-.08-3.15-1.09-4.08-3.03l-14.69-36.72,2.33,.35-13.29,36.37c-.86,1.94-2.21,2.95-4.08,3.03-1.01,.15-1.98-.06-2.91-.64-.93-.58-1.59-1.38-1.98-2.39l-18.18-51.64c-.23-.62-.35-1.24-.35-1.86,0-1.32,.43-2.45,1.28-3.38,.85-.93,2.02-1.4,3.5-1.4,.93,0,1.79,.23,2.56,.7,.78,.47,1.32,1.24,1.63,2.33l15.74,45.81-2.45-.12,13.52-34.97c.85-1.94,2.33-2.91,4.43-2.91,1.09,0,1.96,.25,2.62,.76,.66,.51,1.15,1.22,1.46,2.16l14.22,34.97-2.91,.23,15.74-45.92c.62-2.02,2.1-3.03,4.43-3.03Z"/>
        <path class="cls-1" d="M279.1,117.57h27.39c1.24,0,2.27,.43,3.09,1.28,.82,.86,1.22,1.91,1.22,3.15,0,1.17-.41,2.16-1.22,2.97-.82,.82-1.85,1.22-3.09,1.22h-27.39c-1.17,0-2.2-.43-3.09-1.28-.89-.85-1.34-1.86-1.34-3.03,0-1.24,.45-2.27,1.34-3.09,.89-.82,1.92-1.22,3.09-1.22Zm12.24-15.85c1.32,0,2.41,.47,3.26,1.4,.85,.93,1.28,2.06,1.28,3.38v56.18c0,1.87,.27,3.26,.82,4.2,.54,.93,1.26,1.57,2.16,1.92,.89,.35,1.77,.52,2.62,.52,.78,0,1.46-.13,2.04-.41,.58-.27,1.26-.41,2.04-.41s1.5,.37,2.16,1.11c.66,.74,.99,1.69,.99,2.86,0,1.4-.82,2.58-2.45,3.56-1.63,.97-3.46,1.46-5.48,1.46-1.09,0-2.43-.08-4.02-.23-1.59-.15-3.17-.66-4.72-1.52-1.56-.85-2.86-2.27-3.91-4.25-1.05-1.98-1.57-4.76-1.57-8.33v-56.65c0-1.32,.47-2.45,1.4-3.38,.93-.93,2.06-1.4,3.38-1.4Z"/>
        <path class="cls-1" d="M334,172.7c0,1.32-.47,2.45-1.4,3.38s-2.06,1.4-3.38,1.4-2.43-.47-3.32-1.4c-.89-.93-1.34-2.06-1.34-3.38V96c0-1.32,.47-2.45,1.4-3.38,.93-.93,2.06-1.4,3.38-1.4,1.4,0,2.52,.47,3.38,1.4,.85,.93,1.28,2.06,1.28,3.38v76.7Z"/>
        <path class="cls-1" d="M395.43,116.28c1.32,0,2.43,.47,3.32,1.4,.89,.93,1.34,2.06,1.34,3.38v50.7c0,6.6-1.28,12.04-3.85,16.32-2.56,4.27-6,7.46-10.32,9.56-4.31,2.1-9.19,3.15-14.63,3.15-3.03,0-5.95-.31-8.74-.93-2.8-.62-5.09-1.44-6.88-2.45-1.48-.7-2.53-1.57-3.15-2.62-.62-1.05-.7-2.16-.23-3.32,.54-1.4,1.34-2.37,2.39-2.91,1.05-.54,2.16-.54,3.32,0,1.24,.54,3.05,1.3,5.42,2.27,2.37,.97,5.03,1.46,7.98,1.46,4.04,0,7.5-.78,10.37-2.33,2.87-1.56,5.09-3.83,6.64-6.82,1.55-2.99,2.33-6.7,2.33-11.13v-8.16l1.28,2.8c-1.17,2.49-2.8,4.62-4.9,6.41-2.1,1.79-4.53,3.17-7.29,4.14-2.76,.97-5.73,1.46-8.92,1.46-4.51,0-8.3-.95-11.37-2.86-3.07-1.9-5.38-4.55-6.93-7.93-1.56-3.38-2.33-7.25-2.33-11.6v-35.2c0-1.32,.45-2.45,1.34-3.38,.89-.93,2-1.4,3.32-1.4,1.4,0,2.52,.47,3.38,1.4,.85,.93,1.28,2.06,1.28,3.38v32.99c0,5.29,1.17,9.27,3.5,11.95,2.33,2.68,5.94,4.02,10.84,4.02,3.11,0,5.9-.7,8.39-2.1,2.49-1.4,4.49-3.32,6-5.77,1.52-2.45,2.27-5.15,2.27-8.1v-32.99c0-1.32,.45-2.45,1.34-3.38,.89-.93,2.04-1.4,3.44-1.4Z"/>
      </g>
    </g>
    <g>
      <path class="cls-2" d="M175.72,197.72c-6.29,0-11.77-1.32-16.43-3.96-4.66-2.64-8.28-6.27-10.84-10.9-2.56-4.62-3.85-9.97-3.85-16.03,0-6.76,1.34-12.53,4.02-17.31,2.68-4.78,6.18-8.43,10.49-10.96,4.31-2.52,8.88-3.79,13.7-3.79,3.57,0,7.03,.66,10.37,1.98,3.34,1.32,6.29,3.26,8.86,5.83,2.56,2.56,4.62,5.59,6.18,9.09,1.55,3.5,2.37,7.46,2.45,11.89,0,1.21-.44,2.21-1.32,3.01-.97,.89-2.28,1.3-3.59,1.3h-23.66c-1.83,0-3.43-1.24-3.89-3.01h0c-.66-2.55,1.26-5.04,3.89-5.04h42.82l2.66,8.04h-26.78s-.04-8.97-.04-8.97c-.23-3.19-1.26-5.92-3.09-8.22-1.83-2.29-4.04-4.06-6.64-5.3-2.6-1.24-5.34-1.87-8.22-1.87-2.33,0-4.64,.43-6.94,1.28-2.29,.86-4.35,2.18-6.18,3.96-1.83,1.79-3.3,4.12-4.43,6.99-1.13,2.88-1.69,6.33-1.69,10.37,0,4.51,.91,8.47,2.74,11.89,1.82,3.42,4.37,6.12,7.63,8.1s7.07,2.97,11.42,2.97c2.72,0,5.09-.35,7.11-1.05,2.02-.7,3.75-1.57,5.19-2.62,1.44-1.05,2.66-2.12,3.67-3.21,1.01-.7,2.02-1.05,3.03-1.05,1.09,0,2.02,.39,2.8,1.17,.78,.78,1.17,1.71,1.17,2.8,0,1.32-.62,2.53-1.87,3.61-2.25,2.41-5.23,4.51-8.92,6.29-3.69,1.79-7.63,2.68-11.83,2.68Z"/>
      <path class="cls-2" d="M242.5,197.72c-6.29,0-11.77-1.32-16.44-3.96-4.66-2.64-8.28-6.27-10.84-10.9-2.56-4.62-3.85-9.97-3.85-16.03,0-6.76,1.34-12.53,4.02-17.31,2.68-4.78,6.18-8.43,10.49-10.96,4.31-2.52,8.88-3.79,13.7-3.79,3.57,0,7.03,.66,10.37,1.98,3.34,1.32,6.29,3.26,8.86,5.83,2.56,2.56,4.62,5.59,6.18,9.09,1.55,3.5,2.37,7.46,2.45,11.89,0,1.24-.47,2.27-1.4,3.09-.93,.82-2.02,1.22-3.26,1.22h-46.04l-2.1-8.04h44.76l-1.86,1.63v-2.56c-.23-3.19-1.26-5.92-3.09-8.22-1.83-2.29-4.04-4.06-6.64-5.3-2.6-1.24-5.34-1.87-8.22-1.87-2.33,0-4.64,.43-6.94,1.28-2.29,.86-4.35,2.18-6.18,3.96-1.83,1.79-3.3,4.12-4.43,6.99-1.13,2.88-1.69,6.33-1.69,10.37,0,4.51,.91,8.47,2.74,11.89,1.82,3.42,4.37,6.12,7.63,8.1,3.26,1.98,7.07,2.97,11.42,2.97,2.72,0,5.09-.35,7.11-1.05,2.02-.7,3.75-1.57,5.19-2.62,1.44-1.05,2.66-2.12,3.67-3.21,1.01-.7,2.02-1.05,3.03-1.05,1.09,0,2.02,.39,2.8,1.17,.78,.78,1.17,1.71,1.17,2.8,0,1.32-.62,2.53-1.87,3.61-2.25,2.41-5.23,4.51-8.92,6.29-3.69,1.79-7.63,2.68-11.83,2.68Z"/>
      <path class="cls-2" d="M175.78,165.66c-.48,.73-1.22,1.14-2.22,1.23s-1.98-.18-2.92-.79-1.57-1.39-1.87-2.32c-.3-.93-.22-1.76,.26-2.5l27.66-42.58c.48-.73,1.22-1.14,2.22-1.23,1-.09,1.98,.18,2.92,.79,1,.65,1.63,1.43,1.91,2.34,.27,.91,.17,1.74-.3,2.47l-27.66,42.58Z"/>
      <path class="cls-2" d="M177.82,125.5c-.36,0-.67-.4-.92-1.19s-.38-1.76-.38-2.88,.13-2.07,.38-2.83c.25-.76,.56-1.14,.92-1.14h20.92c.36,0,.67,.4,.92,1.19,.25,.79,.38,1.75,.38,2.88,0,1.19-.13,2.15-.38,2.88-.25,.73-.56,1.09-.92,1.09h-20.92Z"/>
    </g>
  </g>
</svg>