<?xml version="1.0" encoding="UTF-8"?>
<svg id="Capa_2" data-name="Capa 2" xmlns="http://www.w3.org/2000/svg" viewBox="0 0 681.03 444.93">
  <defs>
    <style>
      .cls-1 {
        fill: #fff;
      }
    </style>
  </defs>
  <g id="Capa_1-2" data-name="Capa 1">
    <g>
      <path class="cls-1" d="M172.52,444.93c-34.89,0-65.26-7.32-91.1-21.97-25.85-14.64-45.88-34.78-60.09-60.42C7.11,336.92,0,307.3,0,273.7c0-37.48,7.43-69.46,22.29-95.95,14.86-26.49,34.25-46.74,58.15-60.74,23.91-13.99,49.21-21,75.92-21,19.81,0,38.98,3.66,57.51,10.98,18.52,7.33,34.89,18.09,49.11,32.31,14.22,14.21,25.62,31.01,34.25,50.4,8.61,19.39,13.14,41.35,13.57,65.91,0,6.69-2.43,12.25-7.29,16.71-5.36,4.92-12.65,7.2-19.93,7.2H152.42c-10.14,0-19.01-6.85-21.57-16.67h0c-3.68-14.12,6.97-27.92,21.57-27.92h237.38l14.74,44.59h-148.43s-.24-49.75-.24-49.75c-1.29-17.66-7.01-32.84-17.12-45.55-10.13-12.7-22.4-22.5-36.83-29.4-14.44-6.89-29.62-10.34-45.55-10.34-12.92,0-25.74,2.37-38.44,7.11-12.71,4.74-24.13,12.06-34.25,21.97-10.13,9.91-18.31,22.84-24.55,38.77-6.25,15.94-9.37,35.11-9.37,57.51,0,24.98,5.06,46.96,15.18,65.9,10.12,18.96,24.23,33.92,42.32,44.91s39.19,16.48,63.32,16.48c15.07,0,28.21-1.94,39.42-5.81,11.2-3.88,20.78-8.73,28.75-14.54,7.97-5.81,14.75-11.73,20.35-17.77,5.59-3.88,11.2-5.81,16.8-5.81,6.03,0,11.2,2.16,15.51,6.46,4.3,4.31,6.46,9.48,6.46,15.51,0,7.33-3.45,14-10.34,20.03-12.5,13.36-28.98,24.99-49.43,34.89-20.47,9.91-42.32,14.86-65.58,14.86Z"/>
      <path class="cls-1" d="M542.76,444.93c-34.89,0-65.26-7.32-91.11-21.97-25.85-14.64-45.88-34.78-60.09-60.42-14.21-25.62-21.32-55.25-21.32-88.84,0-37.48,7.43-69.46,22.29-95.95,14.86-26.49,34.25-46.74,58.15-60.74,23.91-13.99,49.21-21,75.92-21,19.81,0,38.98,3.66,57.5,10.98,18.52,7.33,34.9,18.09,49.11,32.31,14.21,14.21,25.62,31.01,34.24,50.4,8.61,19.39,13.14,41.35,13.57,65.91,0,6.9-2.58,12.6-7.75,17.12-5.17,4.52-11.21,6.78-18.09,6.78h-255.23l-11.63-44.59h248.12l-10.33,9.05v-14.21c-1.29-17.66-7.01-32.84-17.12-45.55-10.13-12.7-22.41-22.5-36.83-29.4-14.43-6.89-29.62-10.34-45.55-10.34-12.92,0-25.75,2.37-38.45,7.11-12.71,4.74-24.13,12.06-34.25,21.97-10.13,9.91-18.31,22.84-24.55,38.77-6.25,15.94-9.37,35.11-9.37,57.51,0,24.98,5.06,46.96,15.18,65.9,10.12,18.96,24.23,33.92,42.32,44.91,18.09,10.98,39.2,16.48,63.32,16.48,15.07,0,28.2-1.94,39.41-5.81,11.2-3.88,20.78-8.73,28.76-14.54,7.96-5.81,14.75-11.73,20.35-17.77,5.6-3.88,11.2-5.81,16.8-5.81,6.03,0,11.2,2.16,15.5,6.46,4.3,4.31,6.46,9.48,6.46,15.51,0,7.33-3.45,14-10.34,20.03-12.5,13.36-28.97,24.99-49.43,34.89-20.46,9.91-42.32,14.86-65.58,14.86Z"/>
      <path class="cls-1" d="M172.86,267.24c-2.64,4.07-6.74,6.33-12.29,6.81-5.56,.47-10.96-.99-16.19-4.39s-8.69-7.69-10.36-12.85c-1.68-5.17-1.19-9.78,1.45-13.85L288.77,6.89c2.64-4.06,6.74-6.34,12.29-6.81,5.56-.47,10.95,.99,16.19,4.39,5.54,3.6,9.06,7.93,10.59,13,1.52,5.07,.96,9.64-1.68,13.7l-153.31,236.06Z"/>
      <path class="cls-1" d="M184.17,44.59c-2,0-3.7-2.2-5.11-6.6-1.41-4.4-2.12-9.73-2.12-15.97,0-6.24,.71-11.47,2.12-15.69C180.47,2.11,182.17,0,184.17,0h115.99c2,0,3.7,2.2,5.11,6.6,1.41,4.4,2.12,9.72,2.12,15.97,0,6.6-.71,11.92-2.12,15.96-1.41,4.04-3.11,6.06-5.11,6.06h-115.99Z"/>
    </g>
  </g>
</svg>